<?xml version="1.0" encoding="utf-8"?>
<!-- Generator: Adobe Illustrator 24.2.0, SVG Export Plug-In . SVG Version: 6.00 Build 0)  -->
<svg version="1.1" xmlns="http://www.w3.org/2000/svg" xmlns:xlink="http://www.w3.org/1999/xlink" x="0px" y="0px"
	 viewBox="0 0 160.58 160.58" style="enable-background:new 0 0 160.58 160.58;" xml:space="preserve">
<g id="Layer_1">
	<path d="M159.58,1v158.58H1V1H159.58 M160.58,0h-1H1H0v1v158.58v1h1h158.58h1v-1V1V0L160.58,0z"/>
	<g>
		<path d="M20.77,23.88h8.56v13.95c-2.88,0.58-5.27,0.86-7.57,0.86c-9.17,0-12.55-5.35-12.55-14.15c0-9.46,4.57-14.81,13.66-14.81
			c1.15,0,3.37,0.08,6.13,0.53v8.84h-1.97l-1.15-3.37C24.8,12.52,23.53,11,21.51,11c-3.54,0-5.39,4.73-5.39,13.45
			c0,8.8,0.82,12.96,5.35,12.96c0.58,0,1.36-0.08,2.1-0.29V26.88l-2.8-1.89V23.88z M29.08,61.39c0,5.59-3.83,8.8-10.57,8.8
			c-1.85,0-4.57-0.29-7.12-0.7v-10.9h1.97l0.82,2.55c1.85,5.88,3.17,7.82,5.51,7.82c2.47,0,4.24-2.14,4.24-4.98
			c0-2.3-1.11-3.95-3.5-5.22l-4.11-2.22c-3.17-1.69-4.9-4.32-4.9-7.53c0-4.85,3.95-7.78,10.53-7.78c1.48,0,3.21,0.12,5.96,0.49v8.89
			h-1.97l-1.11-3.37c-1.11-3.5-2.3-4.81-4.48-4.81c-2.43,0-3.87,1.52-3.87,3.74c0,1.93,1.11,3.41,3.29,4.65l4.15,2.34
			C27.43,55.14,29.08,57.77,29.08,61.39z M47.34,67.85l0.82,1.23v0.62h-6.29l-0.29-2.43c-0.66,1.85-2.43,2.92-4.69,2.92
			c-3.25,0-5.35-2.02-5.35-5.43c0-3.33,1.89-5.47,7.57-7.73l2.47-0.95V53c0-2.59-0.54-3.7-2.1-3.7c-1.28,0-2.02,0.7-3.13,3.54
			L35,56.21h-1.85V49.5c2.43-0.74,4.85-1.23,6.95-1.23c4.69,0,7.24,2.22,7.24,6.25V67.85z M49.77,27.7c0,7.04-3.74,10.98-8.56,10.98
			c-4.85,0-8.6-3.95-8.6-10.98c0-6.99,3.74-10.94,8.6-10.94C46.03,16.76,49.77,20.71,49.77,27.7z M41.59,64.35v-7.04l-0.82,0.33
			c-2.43,0.99-3.37,3.13-3.37,6.38c0,2.43,0.62,3.83,1.97,3.83C40.76,67.85,41.59,66.49,41.59,64.35z M43.72,27.7
			c0-7.82-0.66-9.87-2.51-9.87c-1.89,0-2.55,2.06-2.55,9.87c0,7.86,0.66,9.92,2.55,9.92C43.07,37.62,43.72,35.56,43.72,27.7z
			 M64.29,64.56l0.82,0.45c-1.27,3.7-3,5.18-6.29,5.18c-5.31,0-8.27-4.03-8.27-10.94c0-7.03,3.46-10.98,9.13-10.98
			c1.52,0,3.54,0.25,5.27,0.95v6.99h-1.93l-0.78-2.63c-0.99-3.41-1.6-4.28-2.63-4.28c-1.69,0-3,2.14-3,10.16
			c0,6.5,0.99,8.89,3.5,8.89C61.78,68.34,63.14,67.28,64.29,64.56z M59.85,38.19h-7.4v-0.62l0.82-1.23V13.38l-0.82-1.23v-0.62
			l6.58-0.49v25.3l0.82,1.23V38.19z M70.01,38.68c-4.61,0-7.28-4.07-7.28-11.19c0-7.04,2.84-10.74,7.24-10.74
			c2.18,0,3.46,0.86,3.99,2.55v-5.92l-0.82-1.23v-0.62l6.58-0.49v25.3l0.82,1.23v0.62H74.7l-0.45-3.08
			C73.63,37.7,72.4,38.68,70.01,38.68z M84.45,67.85l0.82,1.23v0.62h-7.41v-0.62l0.82-1.23V53c0-1.73-0.58-2.76-1.85-2.76
			c-1.52,0-2.63,1.32-2.63,3.74v13.86l0.82,1.23v0.62h-7.41v-0.62l0.82-1.23V44.9l-0.82-1.23v-0.62l6.58-0.49v8.39
			c0.78-1.77,2.51-2.67,4.81-2.67c3.41,0,5.43,2.14,5.43,6.29V67.85z M68.78,27.58c0,7.41,0.66,9.67,2.51,9.67
			c2.22,0,2.67-3.25,2.67-9.75c0-6.25-0.45-9.38-2.63-9.38C69.44,18.12,68.78,20.38,68.78,27.58z M110.2,36.34l0.82,1.23v0.62h-7.41
			v-0.62l0.82-1.23V21.12c0-1.48-0.54-2.39-1.69-2.39c-1.48,0-2.59,1.32-2.59,3.7v13.91l0.82,1.23v0.62h-7.4v-0.62l0.82-1.23V21.12
			c0-1.48-0.49-2.39-1.69-2.39c-1.44,0-2.59,1.32-2.59,3.7v13.91l0.82,1.23v0.62h-7.41v-0.62l0.82-1.23V19.56l-0.82-0.99v-0.62
			l5.92-0.7h0.49l0.16,2.3c0.74-1.77,2.51-2.8,4.81-2.8c2.51,0,4.16,1.19,4.85,3.41c0.7-2.14,2.67-3.41,5.14-3.41
			c3.25,0,5.27,2.1,5.27,6.25V36.34z M102.43,63.57c0,3.66-2.3,6.62-7.9,6.62c-1.44,0-3.37-0.16-6.38-0.7v-7.65h1.69l0.53,1.65
			c1.36,4.16,2.59,5.64,4.65,5.64c1.89,0,3.13-1.28,3.13-3.37c0-1.73-0.86-2.92-2.92-3.99l-3.58-1.93c-2.26-1.23-3.5-3.17-3.5-5.55
			c0-3.74,2.92-6.01,7.82-6.01c1.4,0,3.21,0.21,5.18,0.62v5.96h-1.69l-0.86-2.14c-0.99-2.55-1.89-3.37-3.5-3.37
			c-1.69,0-2.72,0.95-2.72,2.55c0,1.4,0.82,2.3,2.84,3.46l3.54,2.02C101.15,58.68,102.43,60.61,102.43,63.57z M129.17,36.34
			l0.82,1.23v0.62h-6.25l-0.29-2.43c-0.66,1.81-2.43,2.92-4.69,2.92c-3.25,0-5.35-2.02-5.35-5.43c0-3.33,1.89-5.47,7.57-7.73
			l2.43-0.95v-3.09c0-2.59-0.53-3.7-2.06-3.7c-1.28,0-2.02,0.7-3.13,3.54l-1.36,3.37h-1.85v-6.71c2.43-0.74,4.85-1.23,6.95-1.23
			c4.69,0,7.2,2.22,7.2,6.25V36.34z M123.41,32.84v-7.03l-0.78,0.33c-2.43,0.99-3.37,3.13-3.37,6.38c0,2.43,0.62,3.83,1.97,3.83
			C122.63,36.34,123.41,34.98,123.41,32.84z M150.39,37.57v0.62h-7.4v-0.62l0.82-1.23V21.49c0-1.73-0.58-2.76-1.85-2.76
			c-1.52,0-2.63,1.32-2.63,3.74v13.86l0.82,1.23v0.62h-7.4v-0.62l0.82-1.23V19.56l-0.82-0.99v-0.62l5.88-0.7h0.49l0.17,2.34
			c0.74-1.85,2.51-2.84,4.89-2.84c3.37,0,5.39,2.14,5.39,6.29v13.29L150.39,37.57z"/>
	</g>
</g>
<g id="Layer_2">
</g>
</svg>
