<?xml version="1.0" encoding="utf-8"?>
<!-- Generator: Adobe Illustrator 25.4.1, SVG Export Plug-In . SVG Version: 6.00 Build 0)  -->
<svg version="1.1" id="Layer_1" xmlns="http://www.w3.org/2000/svg" xmlns:xlink="http://www.w3.org/1999/xlink" x="0px" y="0px"
	 viewBox="0 0 192.8 85" style="enable-background:new 0 0 192.8 85;" xml:space="preserve">
<style type="text/css">
	.st0{fill:#FFFFFF;}
</style>
<g id="Layer_1_00000008132577446801130700000016464656487468630440_">
	<g>
		<path class="st0" d="M16.9,21.2h11.4v18.6c-3.8,0.8-6.7,1.2-9.9,1.2C5.9,41,1.5,33.8,1.5,22.1C1.5,9.4,7.6,2.3,19.8,2.3
			c1.5,0,4.4,0.1,8.1,0.7v11.9h-2.6l-1.5-4.6c-1.4-4.3-3.1-6.5-5.8-6.5c-4.7,0-7.1,6.3-7.1,18.1c0,11.9,1,17.5,7.1,17.5
			c0.8,0,1.8-0.1,2.8-0.4V25.2l-3.7-2.5L16.9,21.2L16.9,21.2z M28.1,71.2C28.1,78.7,23,83,13.9,83c-2.5,0-6.1-0.4-9.5-0.9V67.4h2.6
			l1.1,3.5c2.5,8,4.2,10.6,7.4,10.6c3.3,0,5.7-2.9,5.7-6.8c0-3.1-1.5-5.3-4.7-7l-5.5-3C6.8,62.5,4.5,59,4.5,54.7
			c0-6.5,5.3-10.4,14.1-10.4c2,0,4.3,0.2,8,0.7v11.9h-2.6l-1.5-4.6c-1.5-4.8-3.1-6.6-6-6.6c-3.2,0-5.2,2.1-5.2,5.1
			c0,2.7,1.5,4.6,4.4,6.3l5.5,3.1C25.9,62.9,28.1,66.4,28.1,71.2z M52.4,79.9l1.1,1.7v0.8h-8.4l-0.4-3.2c-0.9,2.4-3.2,3.8-6.2,3.8
			c-4.4,0-7.1-2.8-7.1-7.3c0-4.4,2.5-7.3,10.1-10.3l3.2-1.3v-4.1c0-3.6-0.7-5.1-2.7-5.1c-1.7,0-2.6,0.9-4.2,4.9L36,64.4h-2.5v-9
			c3.2-1,6.5-1.7,9.3-1.7c6.2,0,9.6,3,9.6,8.4V79.9z M55.6,26.4c0,9.4-5,14.6-11.4,14.6c-6.4,0-11.4-5.3-11.4-14.6s5-14.6,11.4-14.6
			C50.6,11.7,55.6,17,55.6,26.4z M44.7,75.3v-9.5l-1,0.4c-3.2,1.3-4.5,4.3-4.5,8.6c0,3.2,0.8,5.1,2.6,5.1S44.7,78.2,44.7,75.3z
			 M47.5,26.4c0-10.6-0.9-13.4-3.3-13.4s-3.3,2.8-3.3,13.4s0.9,13.4,3.3,13.4S47.5,36.9,47.5,26.4z M75.1,75.5l1,0.5
			c-1.8,5.1-4,7-8.4,7c-7.1,0-11-5.3-11-14.6c0-9.3,4.6-14.6,12.1-14.6c2,0,4.7,0.3,7,1.3v9.3h-2.6l-1-3.5c-1.4-4.7-2.1-5.9-3.5-5.9
			c-2.2,0-4,2.9-4,13.8c0,8.7,1.3,11.9,4.7,11.9C71.7,80.7,73.6,79.2,75.1,75.5z M69,40.3h-9.9v-0.8l1.1-1.7V7.2l-1.1-1.7V4.7
			L67.9,4v33.8l1.1,1.7V40.3z M82.5,41c-6.1,0-9.7-5.5-9.7-14.9c0-9.4,3.8-14.4,9.6-14.4c3,0,4.6,1.1,5.3,3.5v-8l-1.1-1.7V4.7
			L95.5,4v33.8l1.1,1.7v0.8h-7.8l-0.6-4.2C87.3,39.7,85.7,41,82.5,41z M101.8,79.9l1.1,1.7v0.8H93v-0.8l1.1-1.7V60.1
			c0-2.4-0.7-3.8-2.4-3.8c-2,0-3.5,1.7-3.5,5.1v18.5l1.1,1.7v0.8h-9.9v-0.8l1.1-1.7V49.2l-1.1-1.7v-0.8l8.8-0.7v11.4
			c1-2.4,3.2-3.7,6.4-3.7c4.5,0,7.2,2.9,7.2,8.4L101.8,79.9L101.8,79.9z M80.9,26.2c0,9.9,0.9,12.9,3.3,12.9c3,0,3.6-4.3,3.6-13
			c0-8.4-0.6-12.6-3.5-12.6C81.8,13.5,80.9,16.5,80.9,26.2z M136.1,37.9l1.1,1.7v0.8h-9.9v-0.8l1.1-1.7V17.5c0-2-0.7-3.2-2.2-3.2
			c-1.9,0-3.5,1.7-3.5,5v18.6l1.1,1.7v0.8H114v-0.8l1.1-1.7V17.5c0-2-0.7-3.2-2.2-3.2c-1.9,0-3.5,1.7-3.5,5v18.6l1.1,1.7v0.8h-9.9
			v-0.8l1.1-1.7V15.5l-1.1-1.3v-0.8l7.9-0.9h0.7l0.2,3.1c0.9-2.4,3.2-3.7,6.4-3.7c3.3,0,5.6,1.6,6.5,4.6c0.8-2.9,3.4-4.6,6.7-4.6
			c4.3,0,7.1,2.9,7.1,8.4V37.9z M125.9,74.3c0,4.8-3.1,8.7-10.5,8.7c-1.9,0-4.5-0.2-8.5-0.9V71.8h2.2l0.7,2.2
			c1.8,5.6,3.5,7.7,6.2,7.7c2.5,0,4.2-1.8,4.2-4.6c0-2.3-1.2-3.9-3.9-5.4l-4.7-2.5c-3-1.7-4.7-4.2-4.7-7.4c0-5,3.9-8,10.4-8
			c1.9,0,4.3,0.3,6.9,0.8v8h-2.2l-1.2-2.9c-1.3-3.5-2.6-4.7-4.7-4.7c-2.2,0-3.6,1.3-3.6,3.5c0,1.9,1.1,3.1,3.8,4.7l4.7,2.6
			C124.2,67.7,125.9,70.2,125.9,74.3z M161.4,37.9l1.1,1.7v0.8h-8.4l-0.4-3.2c-0.9,2.4-3.2,3.8-6.2,3.8c-4.4,0-7.1-2.8-7.1-7.3
			c0-4.4,2.5-7.3,10.1-10.3l3.2-1.3v-4.1c0-3.6-0.7-5.1-2.7-5.1c-1.6,0-2.6,0.9-4.2,4.9l-1.8,4.5h-2.5v-9c3.2-1,6.5-1.6,9.3-1.6
			c6.2,0,9.6,3,9.6,8.4V37.9z M153.7,33.2v-9.5l-1,0.4c-3.2,1.3-4.4,4.3-4.4,8.6c0,3.2,0.8,5.1,2.6,5.1
			C152.6,37.9,153.7,36.2,153.7,33.2z M189.7,39.5v0.8h-9.9v-0.8l1.1-1.7V18.1c0-2.4-0.7-3.8-2.4-3.8c-2,0-3.5,1.7-3.5,5.1v18.5
			l1.1,1.7v0.8h-9.9v-0.8l1.1-1.7V15.5l-1.1-1.3v-0.8l7.9-0.9h0.7l0.2,3.1c0.9-2.4,3.2-3.7,6.4-3.7c4.5,0,7.2,2.9,7.2,8.4v17.7
			L189.7,39.5z"/>
	</g>
</g>
<g id="Layer_2_00000110443604893376616330000012804330960129307808_">
</g>
</svg>
