<?xml version="1.0" encoding="utf-8"?>
<!-- Generator: Adobe Illustrator 24.2.0, SVG Export Plug-In . SVG Version: 6.00 Build 0)  -->
<svg version="1.1" xmlns="http://www.w3.org/2000/svg" xmlns:xlink="http://www.w3.org/1999/xlink" x="0px" y="0px"
	 viewBox="0 0 158.58 158.57" style="enable-background:new 0 0 158.58 158.57;" xml:space="preserve">
<style type="text/css">
	.st0{fill:#FFFFFF;}
</style>
<g id="Layer_1">
	<rect y="0" class="st0" width="158.57" height="158.57"/>
	<g>
		<path d="M19.2,22.53h8.56v13.95c-2.88,0.58-5.27,0.86-7.57,0.86c-9.17,0-12.55-5.35-12.55-14.15c0-9.46,4.57-14.81,13.66-14.81
			c1.15,0,3.37,0.08,6.13,0.53v8.84h-1.97l-1.15-3.37c-1.07-3.21-2.34-4.73-4.36-4.73c-3.54,0-5.39,4.73-5.39,13.45
			c0,8.8,0.82,12.96,5.35,12.96c0.58,0,1.36-0.08,2.1-0.29V25.53l-2.8-1.89V22.53z M27.51,60.05c0,5.59-3.83,8.8-10.57,8.8
			c-1.85,0-4.57-0.29-7.12-0.7v-10.9h1.97l0.82,2.55c1.85,5.88,3.17,7.82,5.51,7.82c2.47,0,4.24-2.14,4.24-4.98
			c0-2.3-1.11-3.95-3.5-5.22l-4.11-2.22c-3.17-1.69-4.9-4.32-4.9-7.53c0-4.85,3.95-7.78,10.53-7.78c1.48,0,3.21,0.12,5.96,0.49v8.89
			h-1.97l-1.11-3.37c-1.11-3.5-2.3-4.81-4.48-4.81c-2.43,0-3.87,1.52-3.87,3.74c0,1.93,1.11,3.41,3.29,4.65l4.15,2.34
			C25.86,53.8,27.51,56.43,27.51,60.05z M45.77,66.51l0.82,1.23v0.62H40.3l-0.29-2.43c-0.66,1.85-2.43,2.92-4.69,2.92
			c-3.25,0-5.35-2.02-5.35-5.43c0-3.33,1.89-5.47,7.57-7.73l2.47-0.95v-3.09c0-2.59-0.54-3.7-2.1-3.7c-1.28,0-2.02,0.7-3.13,3.54
			l-1.36,3.37h-1.85v-6.71c2.43-0.74,4.85-1.23,6.95-1.23c4.69,0,7.24,2.22,7.24,6.25V66.51z M48.2,26.36
			c0,7.04-3.74,10.98-8.56,10.98c-4.85,0-8.6-3.95-8.6-10.98c0-6.99,3.74-10.94,8.6-10.94C44.45,15.41,48.2,19.36,48.2,26.36z
			 M40.01,63.01v-7.04l-0.82,0.33c-2.43,0.99-3.37,3.13-3.37,6.38c0,2.43,0.62,3.83,1.97,3.83C39.19,66.51,40.01,65.15,40.01,63.01z
			 M42.15,26.36c0-7.82-0.66-9.87-2.51-9.87c-1.89,0-2.55,2.06-2.55,9.87c0,7.86,0.66,9.92,2.55,9.92
			C41.49,36.27,42.15,34.21,42.15,26.36z M62.72,63.22l0.82,0.45c-1.27,3.7-3,5.18-6.29,5.18c-5.31,0-8.27-4.03-8.27-10.94
			c0-7.03,3.46-10.98,9.13-10.98c1.52,0,3.54,0.25,5.27,0.95v6.99h-1.93l-0.78-2.63c-0.99-3.41-1.6-4.28-2.63-4.28
			c-1.69,0-3,2.14-3,10.16c0,6.5,0.99,8.89,3.5,8.89C60.21,67,61.57,65.93,62.72,63.22z M58.28,36.85h-7.4v-0.62L51.69,35V12.04
			l-0.82-1.23v-0.62l6.58-0.49V35l0.82,1.23V36.85z M68.44,37.34c-4.61,0-7.28-4.07-7.28-11.19c0-7.04,2.84-10.74,7.24-10.74
			c2.18,0,3.46,0.86,3.99,2.55v-5.92l-0.82-1.23v-0.62l6.58-0.49V35l0.82,1.23v0.62h-5.84l-0.45-3.08
			C72.06,36.35,70.82,37.34,68.44,37.34z M82.88,66.51l0.82,1.23v0.62h-7.41v-0.62l0.82-1.23V51.66c0-1.73-0.58-2.76-1.85-2.76
			c-1.52,0-2.63,1.32-2.63,3.74v13.86l0.82,1.23v0.62h-7.41v-0.62l0.82-1.23V43.55l-0.82-1.23V41.7l6.58-0.49v8.39
			c0.78-1.77,2.51-2.67,4.81-2.67c3.41,0,5.43,2.14,5.43,6.29V66.51z M67.2,26.23c0,7.41,0.66,9.67,2.51,9.67
			c2.22,0,2.67-3.25,2.67-9.75c0-6.25-0.45-9.38-2.63-9.38C67.86,16.77,67.2,19.03,67.2,26.23z M108.63,35l0.82,1.23v0.62h-7.41
			v-0.62l0.82-1.23V19.77c0-1.48-0.54-2.39-1.69-2.39c-1.48,0-2.59,1.32-2.59,3.7V35l0.82,1.23v0.62h-7.4v-0.62L92.83,35V19.77
			c0-1.48-0.49-2.39-1.69-2.39c-1.44,0-2.59,1.32-2.59,3.7V35l0.82,1.23v0.62h-7.41v-0.62L82.79,35V18.21l-0.82-0.99v-0.62l5.92-0.7
			h0.49l0.16,2.3c0.74-1.77,2.51-2.8,4.81-2.8c2.51,0,4.16,1.19,4.85,3.41c0.7-2.14,2.67-3.41,5.14-3.41c3.25,0,5.27,2.1,5.27,6.25
			V35z M100.85,62.23c0,3.66-2.3,6.62-7.9,6.62c-1.44,0-3.37-0.16-6.38-0.7V60.5h1.69l0.53,1.65c1.36,4.16,2.59,5.64,4.65,5.64
			c1.89,0,3.13-1.28,3.13-3.37c0-1.73-0.86-2.92-2.92-3.99l-3.58-1.93c-2.26-1.23-3.5-3.17-3.5-5.55c0-3.74,2.92-6.01,7.82-6.01
			c1.4,0,3.21,0.21,5.18,0.62v5.96h-1.69l-0.86-2.14c-0.99-2.55-1.89-3.37-3.5-3.37c-1.69,0-2.72,0.95-2.72,2.55
			c0,1.4,0.82,2.3,2.84,3.46l3.54,2.02C99.58,57.33,100.85,59.27,100.85,62.23z M127.59,35l0.82,1.23v0.62h-6.25l-0.29-2.43
			c-0.66,1.81-2.43,2.92-4.69,2.92c-3.25,0-5.35-2.02-5.35-5.43c0-3.33,1.89-5.47,7.57-7.73l2.43-0.95v-3.09
			c0-2.59-0.53-3.7-2.06-3.7c-1.28,0-2.02,0.7-3.13,3.54l-1.36,3.37h-1.85v-6.71c2.43-0.74,4.85-1.23,6.95-1.23
			c4.69,0,7.2,2.22,7.2,6.25V35z M121.83,31.5v-7.03l-0.78,0.33c-2.43,0.99-3.37,3.13-3.37,6.38c0,2.43,0.62,3.83,1.97,3.83
			C121.05,35,121.83,33.64,121.83,31.5z M148.82,36.23v0.62h-7.4v-0.62l0.82-1.23V20.14c0-1.73-0.58-2.76-1.85-2.76
			c-1.52,0-2.63,1.32-2.63,3.74V35l0.82,1.23v0.62h-7.4v-0.62l0.82-1.23V18.21l-0.82-0.99v-0.62l5.88-0.7h0.49l0.17,2.34
			c0.74-1.85,2.51-2.84,4.89-2.84c3.37,0,5.39,2.14,5.39,6.29V35L148.82,36.23z"/>
	</g>
</g>
<g id="Layer_2">
</g>
</svg>
